<?xml version="1.0" standalone="no"?>
<!DOCTYPE svg PUBLIC "-//W3C//DTD SVG 20010904//EN"
 "http://www.w3.org/TR/2001/REC-SVG-20010904/DTD/svg10.dtd">
<svg version="1.0" xmlns="http://www.w3.org/2000/svg"
 width="640.000000pt" height="640.000000pt" viewBox="0 0 640.000000 640.000000"
 preserveAspectRatio="xMidYMid meet">
<metadata>
Created by potrace 1.11, written by Peter Selinger 2001-2013
</metadata>
<g transform="translate(0.000000,640.000000) scale(0.100000,-0.100000)"
fill="#000000" stroke="none">
<path d="M2965 6304 c-126 -53 -249 -104 -272 -115 -24 -10 -45 -19 -48 -19
-3 0 -24 -9 -48 -19 -23 -11 -159 -67 -302 -126 -143 -58 -273 -112 -290 -120
-16 -7 -212 -88 -435 -180 -223 -92 -424 -176 -447 -186 -23 -11 -44 -19 -47
-19 -16 0 -146 -64 -146 -72 0 -5 -9 -28 -19 -51 -11 -23 -39 -91 -64 -152
-76 -186 -267 -647 -292 -705 -13 -30 -105 -253 -205 -495 -100 -242 -220
-531 -266 -642 l-84 -201 119 -289 c65 -158 169 -409 231 -558 61 -148 143
-346 182 -440 39 -93 88 -210 108 -260 21 -49 86 -207 145 -350 59 -143 113
-274 121 -291 7 -17 17 -41 22 -54 7 -18 78 -51 383 -177 206 -85 388 -160
404 -168 17 -7 71 -29 120 -49 50 -20 99 -41 110 -46 19 -9 998 -415 1173
-486 78 -32 86 -33 115 -20 18 8 149 62 292 121 143 58 269 110 280 115 21 10
609 254 940 390 110 45 214 88 230 95 17 7 109 46 205 85 96 40 194 81 217 91
24 10 47 19 53 19 6 0 15 12 22 28 6 15 16 41 23 57 7 17 88 212 180 435 91
223 172 419 180 435 7 17 84 201 170 410 86 209 163 394 170 410 71 158 199
485 197 502 -1 13 -11 44 -23 70 -33 74 -76 179 -174 418 -18 44 -110 267
-205 495 -95 228 -193 467 -219 530 -133 323 -302 726 -309 736 -7 10 -84 42
-1072 451 -272 112 -531 220 -575 238 -44 19 -163 68 -265 110 -102 41 -194
79 -205 84 -83 37 -113 49 -130 54 -13 4 -105 -29 -250 -89z m414 -1578 c97
-40 353 -146 569 -236 215 -89 392 -166 392 -171 0 -4 104 -258 230 -564 l230
-556 -121 -292 c-66 -161 -126 -305 -134 -322 -7 -16 -59 -141 -114 -276 -101
-243 -102 -245 -139 -259 -34 -12 -413 -168 -889 -366 -218 -90 -201 -88 -290
-48 -83 36 -103 44 -178 74 -44 17 -104 43 -133 56 -29 13 -56 24 -61 24 -4 0
-21 6 -37 14 -16 8 -167 71 -336 141 -170 70 -308 131 -308 137 0 8 -97 245
-205 503 -42 99 -175 421 -221 532 l-34 83 59 142 c32 79 136 330 231 558 95
228 174 421 177 428 3 6 9 12 14 12 9 0 149 58 789 324 179 74 327 135 329
136 2 0 83 -33 180 -74z"/>
</g>
</svg>
